<svg width="354" height="80" viewBox="0 0 354 80" fill="none" xmlns="http://www.w3.org/2000/svg">
<path d="M22.7344 40.2079C22.7344 41.744 23.1661 43.2454 23.975 44.5223C24.7838 45.7992 25.9334 46.7941 27.2782 47.3811C28.623 47.9682 30.1025 48.1211 31.5297 47.8203C32.9567 47.5194 34.2672 46.7787 35.2952 45.6914C36.3233 44.6042 37.0226 43.2196 37.3046 41.7127C37.5867 40.2059 37.439 38.6446 36.88 37.2264C36.3211 35.8082 35.3761 34.597 34.1646 33.746C32.9532 32.8949 31.5297 32.4423 30.0743 32.4453C28.1264 32.4496 26.2595 33.2692 24.8834 34.7246C23.5072 36.1799 22.7344 38.1519 22.7344 40.2079Z" fill="#5362ED"/>
<path d="M30.0743 64.4766C28.6197 64.4766 27.1977 64.9318 25.9882 65.7847C24.7786 66.6378 23.8361 67.8502 23.2794 69.2685C22.7227 70.687 22.577 72.2478 22.8609 73.7537C23.1446 75.2594 23.8451 76.6425 24.8736 77.7282C25.9023 78.8138 27.2127 79.5532 28.6395 79.8527C30.0663 80.1522 31.545 79.9985 32.8889 79.4109C34.2329 78.8234 35.3815 77.8284 36.1897 76.5518C36.9978 75.2752 37.4291 73.7744 37.4291 72.2392C37.4291 70.1804 36.6544 68.2059 35.2749 66.7502C33.8957 65.2945 32.025 64.4766 30.0743 64.4766Z" fill="#5362ED"/>
<path d="M52.6451 32.4453C51.1904 32.4453 49.7684 32.9005 48.559 33.7536C47.3495 34.6066 46.4068 35.8189 45.8501 37.2374C45.2934 38.6557 45.1478 40.2166 45.4316 41.7224C45.7153 43.2281 46.4159 44.6114 47.4445 45.6969C48.473 46.7826 49.7836 47.5219 51.2102 47.8214C52.637 48.1209 54.1158 47.9672 55.4596 47.3797C56.8036 46.7922 57.9522 45.7972 58.7604 44.5206C59.5685 43.2441 60 41.7433 60 40.2079C60 38.1493 59.2251 36.1747 57.8458 34.7189C56.4664 33.2632 54.5957 32.4453 52.6451 32.4453Z" fill="#5362ED"/>
<path d="M30.0743 15.5252C31.5297 15.5284 32.9532 15.0757 34.1646 14.2246C35.3761 13.3735 36.3211 12.1623 36.88 10.7441C37.439 9.32597 37.5867 7.76465 37.3046 6.25786C37.0226 4.75106 36.3233 3.36636 35.2952 2.27913C34.2672 1.19205 32.9567 0.451138 31.5297 0.150376C30.1025 -0.150543 28.623 0.00235161 27.2782 0.589419C25.9334 1.17649 24.7838 2.17133 23.975 3.44823C23.1661 4.72514 22.7344 6.22658 22.7344 7.76261C22.7344 9.8186 23.5072 11.7907 24.8834 13.2461C26.2595 14.7014 28.1264 15.521 30.0743 15.5252Z" fill="#5362ED"/>
<path d="M14.7096 39.3134C14.7096 37.778 14.2783 36.2772 13.4701 35.0006C12.662 33.7242 11.5134 32.7292 10.1694 32.1417C8.82541 31.5541 7.3467 31.4004 5.91995 31.6999C4.4932 31.9994 3.18272 32.7388 2.15409 33.8244C1.1256 34.91 0.425096 36.2931 0.141324 37.7989C-0.142449 39.3048 0.00316133 40.8656 0.559837 42.284C1.11651 43.7024 2.05925 44.9148 3.26863 45.7677C4.47816 46.6207 5.90015 47.076 7.35474 47.076C9.30541 47.076 11.1761 46.2581 12.5555 44.8024C13.9348 43.3465 14.7096 41.3721 14.7096 39.3134Z" fill="#5362ED"/>
<path d="M46.809 50.7853C44.1779 47.9914 42.7011 44.2121 42.7011 40.2728C42.7011 36.3335 44.1779 32.5542 46.809 29.7603C47.8348 28.6734 48.5323 27.2902 48.8139 25.7853C49.0952 24.2803 48.9479 22.7211 48.3903 21.3044C47.8329 19.8878 46.8901 18.6772 45.6812 17.8257C44.4724 16.974 43.0516 16.5195 41.5981 16.5195C40.1447 16.5195 38.7239 16.974 37.5151 17.8257C36.3061 18.6772 35.3634 19.8878 34.806 21.3044C34.2484 22.7211 34.101 24.2803 34.3824 25.7853C34.664 27.2902 35.3615 28.6734 36.3871 29.7603C37.7088 31.1423 38.758 32.7872 39.4739 34.5997C40.1898 36.4121 40.5584 38.3564 40.5584 40.32C40.5584 42.2836 40.1898 44.2278 39.4739 46.0402C38.758 47.8527 37.7088 49.4974 36.3871 50.8796C35.3615 51.9664 34.664 53.3497 34.3824 54.8546C34.101 56.3597 34.2484 57.9188 34.806 59.3355C35.3634 60.7521 36.3061 61.9627 37.5151 62.8142C38.7239 63.6659 40.1447 64.1204 41.5981 64.1204C43.0516 64.1204 44.4724 63.6659 45.6812 62.8142C46.8901 61.9627 47.8329 60.7521 48.3903 59.3355C48.9479 57.9188 49.0952 56.3597 48.8139 54.8546C48.5323 53.3497 47.8348 51.9664 46.809 50.8796V50.7853Z" fill="#6B379E"/>
<path d="M25.6377 55.3162C25.6298 53.2781 24.8717 51.3228 23.5236 49.8635C20.8925 47.0696 19.4157 43.2902 19.4157 39.3509C19.4157 35.4117 20.8925 31.6325 23.5236 28.8384C24.5494 27.7516 25.2469 26.3684 25.5283 24.8635C25.8098 23.3585 25.6624 21.7993 25.1049 20.3827C24.5474 18.9659 23.6047 17.7555 22.3958 16.9038C21.187 16.0523 19.766 15.5977 18.3126 15.5977C16.8592 15.5977 15.4384 16.0523 14.2295 16.9038C13.0207 17.7555 12.078 18.9659 11.5204 20.3827C10.963 21.7993 10.8156 23.3585 11.097 24.8635C11.3785 26.3684 12.0761 27.7516 13.1017 28.8384C14.4211 30.2203 15.4684 31.8641 16.183 33.6751C16.8976 35.4861 17.2655 37.4285 17.2655 39.3902C17.2655 41.3521 16.8976 43.2945 16.183 45.1055C15.4684 46.9165 14.4211 48.5603 13.1017 49.942C12.255 50.8497 11.6328 51.9633 11.2902 53.1847C10.9477 54.406 10.895 55.6975 11.137 56.9455C11.3791 58.1934 11.9084 59.3592 12.6783 60.3402C13.4482 61.3212 14.4348 62.0871 15.5514 62.5704C16.6681 63.0538 17.8801 63.2398 19.0809 63.1119C20.2816 62.984 21.4341 62.5462 22.4367 61.8371C23.4393 61.1281 24.2611 60.1695 24.8297 59.046C25.3985 57.9224 25.6964 56.6685 25.6973 55.3947L25.6377 55.3162Z" fill="#6B379E"/>
<path d="M91.5 62.6C89.62 62.6 88.1 62 86.94 60.8C85.82 59.6 85.02 57.72 84.54 55.16L78.18 22.52C78.1 22.12 78.06 21.82 78.06 21.62C78.06 20.9 78.28 20.36 78.72 20C79.2 19.6 79.86 19.4 80.7 19.4C81.66 19.4 82.36 19.62 82.8 20.06C83.28 20.46 83.6 21.08 83.76 21.92L89.88 55.46C90.08 56.42 90.3 57.08 90.54 57.44C90.78 57.76 91.14 57.92 91.62 57.92C92.14 57.92 92.52 57.74 92.76 57.38C93.04 56.98 93.24 56.36 93.36 55.52L97.8 25.34C98.08 23.42 98.72 21.96 99.72 20.96C100.72 19.92 102.04 19.4 103.68 19.4C105.32 19.4 106.62 19.92 107.58 20.96C108.58 22 109.22 23.46 109.5 25.34L113.88 55.52C114 56.36 114.2 56.98 114.48 57.38C114.76 57.74 115.14 57.92 115.62 57.92C116.1 57.92 116.46 57.74 116.7 57.38C116.98 57.02 117.2 56.38 117.36 55.46L123.54 21.92C123.7 21.08 124.02 20.46 124.5 20.06C124.98 19.62 125.68 19.4 126.6 19.4C128.32 19.4 129.18 20.14 129.18 21.62C129.18 21.82 129.14 22.12 129.06 22.52L122.76 55.16C122.24 57.64 121.42 59.5 120.3 60.74C119.22 61.98 117.7 62.6 115.74 62.6C113.86 62.6 112.38 62 111.3 60.8C110.26 59.6 109.54 57.74 109.14 55.22L104.88 26.06C104.76 25.34 104.6 24.84 104.4 24.56C104.24 24.24 104 24.08 103.68 24.08C103.32 24.08 103.04 24.24 102.84 24.56C102.68 24.84 102.54 25.34 102.42 26.06L98.1 55.22C97.74 57.74 97.02 59.6 95.94 60.8C94.86 62 93.38 62.6 91.5 62.6ZM148.569 62.6C143.369 62.6 139.309 61.26 136.389 58.58C133.509 55.86 132.069 52.1 132.069 47.3C132.069 42.54 133.489 38.8 136.329 36.08C139.209 33.36 143.189 32 148.269 32C151.389 32 154.149 32.5 156.549 33.5C158.989 34.46 160.889 35.84 162.249 37.64C163.609 39.4 164.289 41.42 164.289 43.7C164.289 45.46 163.769 46.82 162.729 47.78C161.729 48.74 160.289 49.22 158.409 49.22H137.589C137.589 52.02 138.529 54.2 140.409 55.76C142.329 57.28 145.049 58.04 148.569 58.04C150.649 58.04 152.449 57.82 153.969 57.38C155.529 56.94 156.989 56.22 158.349 55.22C159.349 54.54 160.109 54.2 160.629 54.2C161.109 54.2 161.549 54.4 161.949 54.8C162.509 55.36 162.789 55.94 162.789 56.54C162.789 57.14 162.509 57.7 161.949 58.22C158.669 61.14 154.209 62.6 148.569 62.6ZM156.729 45.02C157.449 45.02 157.969 44.88 158.289 44.6C158.609 44.32 158.769 43.82 158.769 43.1C158.769 41.18 157.789 39.62 155.829 38.42C153.909 37.18 151.389 36.56 148.269 36.56C145.029 36.56 142.449 37.32 140.529 38.84C138.649 40.36 137.709 42.42 137.709 45.02H156.729ZM173.119 62.6C172.239 62.6 171.559 62.36 171.079 61.88C170.599 61.36 170.359 60.66 170.359 59.78V19.28C170.359 18.4 170.599 17.72 171.079 17.24C171.559 16.72 172.239 16.46 173.119 16.46C173.999 16.46 174.679 16.72 175.159 17.24C175.679 17.72 175.939 18.4 175.939 19.28L175.999 37.64C179.199 33.88 183.319 32 188.359 32C193.279 32 197.159 33.38 199.999 36.14C202.839 38.86 204.259 42.58 204.259 47.3C204.259 52.14 202.859 55.9 200.059 58.58C197.259 61.26 193.319 62.6 188.239 62.6C185.599 62.6 183.279 62.14 181.279 61.22C179.279 60.26 177.499 58.8 175.939 56.84V59.78C175.939 60.66 175.679 61.36 175.159 61.88C174.679 62.36 173.999 62.6 173.119 62.6ZM187.639 57.98C191.239 57.98 193.979 57.08 195.859 55.28C197.739 53.44 198.679 50.78 198.679 47.3C198.679 43.94 197.699 41.32 195.739 39.44C193.779 37.56 191.079 36.62 187.639 36.62C185.359 36.62 183.319 37.08 181.519 38C179.759 38.88 178.379 40.14 177.379 41.78C176.419 43.38 175.939 45.22 175.939 47.3C175.939 50.62 176.979 53.24 179.059 55.16C181.139 57.04 183.999 57.98 187.639 57.98ZM219.499 62C216.819 62 214.739 61.3 213.259 59.9C211.819 58.5 211.099 56.56 211.099 54.08V22.22C211.099 21.34 211.339 20.66 211.819 20.18C212.339 19.66 213.039 19.4 213.919 19.4C214.799 19.4 215.499 19.66 216.019 20.18C216.539 20.66 216.799 21.34 216.799 22.22V54.14C216.799 55.14 217.059 55.94 217.579 56.54C218.099 57.14 218.819 57.44 219.739 57.44H239.479C241.359 57.44 242.299 58.2 242.299 59.72C242.299 60.44 242.039 61 241.519 61.4C241.039 61.8 240.359 62 239.479 62H219.499ZM256.935 62.6C253.055 62.6 249.975 61.72 247.695 59.96C245.455 58.2 244.335 55.82 244.335 52.82C244.335 49.82 245.515 47.44 247.875 45.68C250.275 43.92 253.535 43.04 257.655 43.04C259.815 43.04 261.735 43.32 263.415 43.88C265.135 44.44 266.515 45.2 267.555 46.16V43.16C267.555 41 266.855 39.36 265.455 38.24C264.095 37.08 262.075 36.5 259.395 36.5C255.835 36.5 252.755 37.32 250.155 38.96C249.395 39.4 248.735 39.62 248.175 39.62C247.655 39.62 247.135 39.4 246.615 38.96C246.175 38.52 245.955 38 245.955 37.4C245.955 36.72 246.295 36.1 246.975 35.54C248.415 34.46 250.235 33.6 252.435 32.96C254.635 32.32 256.935 32 259.335 32C263.695 32 267.095 33 269.535 35C271.975 36.96 273.195 39.72 273.195 43.28V59.9C273.195 60.78 272.955 61.46 272.475 61.94C272.035 62.38 271.375 62.6 270.495 62.6C269.615 62.6 268.935 62.38 268.455 61.94C267.975 61.46 267.735 60.82 267.735 60.02V58.34C265.335 61.18 261.735 62.6 256.935 62.6ZM257.895 58.34C260.815 58.34 263.155 57.82 264.915 56.78C266.715 55.7 267.615 54.3 267.615 52.58C267.615 50.9 266.755 49.6 265.035 48.68C263.355 47.72 261.015 47.24 258.015 47.24C255.415 47.24 253.415 47.72 252.015 48.68C250.615 49.64 249.915 51.02 249.915 52.82C249.915 54.58 250.595 55.94 251.955 56.9C253.355 57.86 255.335 58.34 257.895 58.34ZM283.101 62.6C282.221 62.6 281.541 62.36 281.061 61.88C280.621 61.36 280.401 60.66 280.401 59.78V34.82C280.401 32.94 281.301 32 283.101 32C283.941 32 284.601 32.26 285.081 32.78C285.561 33.26 285.801 33.94 285.801 34.82V37.76C288.761 33.92 292.781 32 297.861 32C301.701 32 304.661 33.12 306.741 35.36C308.861 37.56 309.921 40.68 309.921 44.72V59.78C309.921 60.66 309.661 61.36 309.141 61.88C308.661 62.36 308.001 62.6 307.161 62.6C306.281 62.6 305.601 62.36 305.121 61.88C304.641 61.36 304.401 60.66 304.401 59.78V44.72C304.401 42.04 303.761 40.02 302.481 38.66C301.241 37.3 299.381 36.62 296.901 36.62C293.541 36.62 290.861 37.62 288.861 39.62C286.901 41.58 285.921 44.24 285.921 47.6V59.78C285.921 60.66 285.661 61.36 285.141 61.88C284.661 62.36 283.981 62.6 283.101 62.6ZM333.219 77.06C330.259 77.06 327.559 76.62 325.119 75.74C322.719 74.86 320.779 73.62 319.299 72.02C318.899 71.58 318.699 71.1 318.699 70.58C318.699 69.9 319.079 69.24 319.839 68.6C320.199 68.28 320.659 68.12 321.219 68.12C322.059 68.12 322.859 68.52 323.619 69.32C324.579 70.32 325.819 71.1 327.339 71.66C328.899 72.26 330.719 72.56 332.799 72.56C336.439 72.56 339.239 71.62 341.199 69.74C343.159 67.86 344.119 65.18 344.079 61.7V57.14C342.719 58.86 340.999 60.24 338.919 61.28C336.839 62.28 334.399 62.78 331.599 62.78C326.559 62.78 322.659 61.44 319.899 58.76C317.139 56.04 315.759 52.36 315.759 47.72C315.759 42.96 317.159 39.16 319.959 36.32C322.759 33.44 326.759 32 331.959 32C334.439 32 336.699 32.5 338.739 33.5C340.779 34.5 342.559 35.92 344.079 37.76V34.7C344.079 33.9 344.339 33.26 344.859 32.78C345.419 32.26 346.099 32 346.899 32C347.739 32 348.399 32.24 348.879 32.72C349.399 33.2 349.659 33.86 349.659 34.7V61.7C349.659 64.78 348.979 67.48 347.619 69.8C346.259 72.12 344.339 73.9 341.859 75.14C339.379 76.42 336.499 77.06 333.219 77.06ZM332.379 58.1C334.499 58.1 336.439 57.7 338.199 56.9C339.999 56.1 341.419 54.9 342.459 53.3C343.539 51.7 344.079 49.74 344.079 47.42C344.079 44.22 343.059 41.62 341.019 39.62C338.979 37.62 336.159 36.62 332.559 36.62C328.999 36.62 326.239 37.6 324.279 39.56C322.319 41.48 321.339 44.2 321.339 47.72C321.339 50.92 322.279 53.46 324.159 55.34C326.079 57.18 328.819 58.1 332.379 58.1Z" fill="#28143C"/>
</svg>
