<svg width="279" height="205" viewBox="0 0 279 205" fill="none" xmlns="http://www.w3.org/2000/svg">
<path d="M127.891 63.8368C127.891 66.2753 128.61 68.6589 129.958 70.686C131.306 72.7131 133.222 74.2925 135.464 75.2245C137.705 76.1564 140.171 76.3992 142.549 75.9217C144.928 75.444 147.112 74.268 148.825 72.542C150.539 70.816 151.704 68.618 152.174 66.2257C152.645 63.8336 152.398 61.355 151.467 59.1036C150.535 56.8522 148.96 54.9294 146.941 53.5783C144.922 52.2272 142.549 51.5088 140.124 51.5135C136.877 51.5202 133.766 52.8214 131.472 55.1319C129.179 57.4422 127.891 60.5729 127.891 63.8368Z" fill="#5362ED"/>
<path d="M140.124 102.353C137.7 102.353 135.33 103.076 133.314 104.43C131.298 105.784 129.727 107.709 128.799 109.961C127.871 112.212 127.628 114.69 128.101 117.081C128.574 119.471 129.742 121.667 131.456 123.39C133.17 125.114 135.355 126.288 137.733 126.763C140.11 127.239 142.575 126.995 144.815 126.062C147.055 125.129 148.969 123.55 150.316 121.523C151.663 119.496 152.382 117.114 152.382 114.677C152.382 111.408 151.091 108.274 148.792 105.963C146.493 103.652 143.375 102.353 140.124 102.353Z" fill="#5362ED"/>
<path d="M177.742 51.5135C175.317 51.5135 172.947 52.2362 170.932 53.5905C168.916 54.9446 167.345 56.8691 166.417 59.121C165.489 61.3727 165.246 63.8505 165.719 66.2411C166.192 68.6315 167.36 70.8274 169.074 72.5507C170.788 74.2742 172.973 75.4479 175.35 75.9234C177.728 76.3989 180.193 76.1549 182.433 75.2222C184.673 74.2895 186.587 72.7099 187.934 70.6833C189.281 68.6569 190 66.2743 190 63.8368C190 60.5686 188.708 57.4339 186.41 55.1229C184.111 52.8119 180.993 51.5135 177.742 51.5135Z" fill="#5362ED"/>
<path d="M140.124 24.6467C142.549 24.6517 144.922 23.933 146.941 22.5819C148.96 21.2308 150.535 19.308 151.467 17.0566C152.398 14.8052 152.645 12.3266 152.174 9.93449C151.704 7.54242 150.539 5.34418 148.825 3.61817C147.112 1.8924 144.928 0.716192 142.549 0.238725C140.171 -0.238991 137.705 0.00373323 135.464 0.935717C133.222 1.8677 131.306 3.44704 129.958 5.47415C128.61 7.50126 127.891 9.88485 127.891 12.3233C127.891 15.5873 129.179 18.718 131.472 21.0285C133.766 23.3387 136.877 24.6399 140.124 24.6467Z" fill="#5362ED"/>
<path d="M114.516 62.4149C114.516 59.9775 113.797 57.5949 112.45 55.5683C111.103 53.5419 109.189 51.9623 106.949 51.0296C104.709 50.0968 102.244 49.8529 99.8666 50.3283C97.4887 50.8038 95.3045 51.9775 93.5901 53.7011C91.876 55.4243 90.7085 57.6201 90.2355 60.0106C89.7626 62.4012 90.0053 64.8791 90.9331 67.1307C91.8609 69.3826 93.4321 71.3072 95.4477 72.6613C97.4636 74.0153 99.8336 74.7383 102.258 74.7383C105.509 74.7383 108.627 73.4398 110.926 71.1288C113.225 68.8176 114.516 65.6831 114.516 62.4149Z" fill="#5362ED"/>
<path d="M168.015 80.6255C163.63 76.1901 161.169 70.1903 161.169 63.9366C161.169 57.6829 163.63 51.6831 168.015 47.2477C169.725 45.5222 170.887 43.3265 171.356 40.9374C171.825 38.5481 171.58 36.0729 170.65 33.8238C169.721 31.5749 168.15 29.6531 166.135 28.3012C164.121 26.9492 161.753 26.2277 159.33 26.2277C156.908 26.2277 154.54 26.9492 152.525 28.3012C150.51 29.6531 148.939 31.5749 148.01 33.8238C147.081 36.0729 146.835 38.5481 147.304 40.9374C147.773 43.3265 148.936 45.5222 150.645 47.2477C152.848 49.4417 154.597 52.0531 155.79 54.9304C156.983 57.8076 157.597 60.8942 157.597 64.0115C157.597 67.1287 156.983 70.2153 155.79 73.0926C154.597 75.9698 152.848 78.5809 150.645 80.7752C148.936 82.5004 147.773 84.6965 147.304 87.0855C146.835 89.4749 147.081 91.95 148.01 94.1991C148.939 96.448 150.51 98.3699 152.525 99.7217C154.54 101.074 156.908 101.795 159.33 101.795C161.753 101.795 164.121 101.074 166.135 99.7217C168.15 98.3699 169.721 96.448 170.65 94.1991C171.58 91.95 171.825 89.4749 171.356 87.0855C170.887 84.6965 169.725 82.5004 168.015 80.7752V80.6255Z" fill="#6B379E"/>
<path d="M132.73 87.81C132.716 84.5745 131.453 81.4705 129.206 79.1537C124.821 74.7183 122.36 68.7185 122.36 62.4648C122.36 56.2111 124.821 50.2116 129.206 45.7759C130.916 44.0507 132.078 41.8547 132.547 39.4656C133.016 37.0765 132.771 34.6011 131.841 32.3522C130.912 30.1031 129.341 28.1815 127.326 26.8294C125.312 25.4776 122.943 24.7559 120.521 24.7559C118.099 24.7559 115.731 25.4776 113.716 26.8294C111.701 28.1815 110.13 30.1031 109.201 32.3522C108.272 34.6011 108.026 37.0765 108.495 39.4656C108.964 41.8547 110.127 44.0507 111.836 45.7759C114.035 47.9697 115.781 50.5793 116.972 53.4543C118.163 56.3294 118.776 59.4129 118.776 62.5272C118.776 65.6417 118.163 68.7253 116.972 71.6003C115.781 74.4753 114.035 77.0849 111.836 79.2784C110.425 80.7193 109.388 82.4872 108.817 84.4263C108.246 86.3651 108.158 88.4154 108.562 90.3966C108.965 92.3776 109.847 94.2283 111.13 95.7857C112.414 97.3431 114.058 98.559 115.919 99.3263C117.78 100.094 119.8 100.389 121.801 100.186C123.803 99.9829 125.724 99.2879 127.395 98.1621C129.066 97.0365 130.435 95.5148 131.383 93.7312C132.331 91.9475 132.827 89.9568 132.829 87.9347L132.73 87.81Z" fill="#6B379E"/>
<path d="M16.5 188.6C14.62 188.6 13.1 188 11.94 186.8C10.82 185.6 10.02 183.72 9.54 181.16L3.18 148.52C3.1 148.12 3.06 147.82 3.06 147.62C3.06 146.9 3.28 146.36 3.72 146C4.2 145.6 4.86 145.4 5.7 145.4C6.66 145.4 7.36 145.62 7.8 146.06C8.28 146.46 8.6 147.08 8.76 147.92L14.88 181.46C15.08 182.42 15.3 183.08 15.54 183.44C15.78 183.76 16.14 183.92 16.62 183.92C17.14 183.92 17.52 183.74 17.76 183.38C18.04 182.98 18.24 182.36 18.36 181.52L22.8 151.34C23.08 149.42 23.72 147.96 24.72 146.96C25.72 145.92 27.04 145.4 28.68 145.4C30.32 145.4 31.62 145.92 32.58 146.96C33.58 148 34.22 149.46 34.5 151.34L38.88 181.52C39 182.36 39.2 182.98 39.48 183.38C39.76 183.74 40.14 183.92 40.62 183.92C41.1 183.92 41.46 183.74 41.7 183.38C41.98 183.02 42.2 182.38 42.36 181.46L48.54 147.92C48.7 147.08 49.02 146.46 49.5 146.06C49.98 145.62 50.68 145.4 51.6 145.4C53.32 145.4 54.18 146.14 54.18 147.62C54.18 147.82 54.14 148.12 54.06 148.52L47.76 181.16C47.24 183.64 46.42 185.5 45.3 186.74C44.22 187.98 42.7 188.6 40.74 188.6C38.86 188.6 37.38 188 36.3 186.8C35.26 185.6 34.54 183.74 34.14 181.22L29.88 152.06C29.76 151.34 29.6 150.84 29.4 150.56C29.24 150.24 29 150.08 28.68 150.08C28.32 150.08 28.04 150.24 27.84 150.56C27.68 150.84 27.54 151.34 27.42 152.06L23.1 181.22C22.74 183.74 22.02 185.6 20.94 186.8C19.86 188 18.38 188.6 16.5 188.6ZM73.5694 188.6C68.3694 188.6 64.3094 187.26 61.3894 184.58C58.5094 181.86 57.0694 178.1 57.0694 173.3C57.0694 168.54 58.4894 164.8 61.3294 162.08C64.2094 159.36 68.1894 158 73.2694 158C76.3894 158 79.1494 158.5 81.5494 159.5C83.9894 160.46 85.8894 161.84 87.2494 163.64C88.6094 165.4 89.2894 167.42 89.2894 169.7C89.2894 171.46 88.7694 172.82 87.7294 173.78C86.7294 174.74 85.2894 175.22 83.4094 175.22H62.5894C62.5894 178.02 63.5294 180.2 65.4094 181.76C67.3294 183.28 70.0494 184.04 73.5694 184.04C75.6494 184.04 77.4494 183.82 78.9694 183.38C80.5294 182.94 81.9894 182.22 83.3494 181.22C84.3494 180.54 85.1094 180.2 85.6294 180.2C86.1094 180.2 86.5494 180.4 86.9494 180.8C87.5094 181.36 87.7894 181.94 87.7894 182.54C87.7894 183.14 87.5094 183.7 86.9494 184.22C83.6694 187.14 79.2094 188.6 73.5694 188.6ZM81.7294 171.02C82.4494 171.02 82.9694 170.88 83.2894 170.6C83.6094 170.32 83.7694 169.82 83.7694 169.1C83.7694 167.18 82.7894 165.62 80.8294 164.42C78.9094 163.18 76.3894 162.56 73.2694 162.56C70.0294 162.56 67.4494 163.32 65.5294 164.84C63.6494 166.36 62.7094 168.42 62.7094 171.02H81.7294ZM98.1192 188.6C97.2392 188.6 96.5592 188.36 96.0792 187.88C95.5992 187.36 95.3592 186.66 95.3592 185.78V145.28C95.3592 144.4 95.5992 143.72 96.0792 143.24C96.5592 142.72 97.2392 142.46 98.1192 142.46C98.9992 142.46 99.6792 142.72 100.159 143.24C100.679 143.72 100.939 144.4 100.939 145.28L100.999 163.64C104.199 159.88 108.319 158 113.359 158C118.279 158 122.159 159.38 124.999 162.14C127.839 164.86 129.259 168.58 129.259 173.3C129.259 178.14 127.859 181.9 125.059 184.58C122.259 187.26 118.319 188.6 113.239 188.6C110.599 188.6 108.279 188.14 106.279 187.22C104.279 186.26 102.499 184.8 100.939 182.84V185.78C100.939 186.66 100.679 187.36 100.159 187.88C99.6792 188.36 98.9992 188.6 98.1192 188.6ZM112.639 183.98C116.239 183.98 118.979 183.08 120.859 181.28C122.739 179.44 123.679 176.78 123.679 173.3C123.679 169.94 122.699 167.32 120.739 165.44C118.779 163.56 116.079 162.62 112.639 162.62C110.359 162.62 108.319 163.08 106.519 164C104.759 164.88 103.379 166.14 102.379 167.78C101.419 169.38 100.939 171.22 100.939 173.3C100.939 176.62 101.979 179.24 104.059 181.16C106.139 183.04 108.999 183.98 112.639 183.98ZM144.499 188C141.819 188 139.739 187.3 138.259 185.9C136.819 184.5 136.099 182.56 136.099 180.08V148.22C136.099 147.34 136.339 146.66 136.819 146.18C137.339 145.66 138.039 145.4 138.919 145.4C139.799 145.4 140.499 145.66 141.019 146.18C141.539 146.66 141.799 147.34 141.799 148.22V180.14C141.799 181.14 142.059 181.94 142.579 182.54C143.099 183.14 143.819 183.44 144.739 183.44H164.479C166.359 183.44 167.299 184.2 167.299 185.72C167.299 186.44 167.039 187 166.519 187.4C166.039 187.8 165.359 188 164.479 188H144.499ZM181.935 188.6C178.055 188.6 174.975 187.72 172.695 185.96C170.455 184.2 169.335 181.82 169.335 178.82C169.335 175.82 170.515 173.44 172.875 171.68C175.275 169.92 178.535 169.04 182.655 169.04C184.815 169.04 186.735 169.32 188.415 169.88C190.135 170.44 191.515 171.2 192.555 172.16V169.16C192.555 167 191.855 165.36 190.455 164.24C189.095 163.08 187.075 162.5 184.395 162.5C180.835 162.5 177.755 163.32 175.155 164.96C174.395 165.4 173.735 165.62 173.175 165.62C172.655 165.62 172.135 165.4 171.615 164.96C171.175 164.52 170.955 164 170.955 163.4C170.955 162.72 171.295 162.1 171.975 161.54C173.415 160.46 175.235 159.6 177.435 158.96C179.635 158.32 181.935 158 184.335 158C188.695 158 192.095 159 194.535 161C196.975 162.96 198.195 165.72 198.195 169.28V185.9C198.195 186.78 197.955 187.46 197.475 187.94C197.035 188.38 196.375 188.6 195.495 188.6C194.615 188.6 193.935 188.38 193.455 187.94C192.975 187.46 192.735 186.82 192.735 186.02V184.34C190.335 187.18 186.735 188.6 181.935 188.6ZM182.895 184.34C185.815 184.34 188.155 183.82 189.915 182.78C191.715 181.7 192.615 180.3 192.615 178.58C192.615 176.9 191.755 175.6 190.035 174.68C188.355 173.72 186.015 173.24 183.015 173.24C180.415 173.24 178.415 173.72 177.015 174.68C175.615 175.64 174.915 177.02 174.915 178.82C174.915 180.58 175.595 181.94 176.955 182.9C178.355 183.86 180.335 184.34 182.895 184.34ZM208.101 188.6C207.221 188.6 206.541 188.36 206.061 187.88C205.621 187.36 205.401 186.66 205.401 185.78V160.82C205.401 158.94 206.301 158 208.101 158C208.941 158 209.601 158.26 210.081 158.78C210.561 159.26 210.801 159.94 210.801 160.82V163.76C213.761 159.92 217.781 158 222.861 158C226.701 158 229.661 159.12 231.741 161.36C233.861 163.56 234.921 166.68 234.921 170.72V185.78C234.921 186.66 234.661 187.36 234.141 187.88C233.661 188.36 233.001 188.6 232.161 188.6C231.281 188.6 230.601 188.36 230.121 187.88C229.641 187.36 229.401 186.66 229.401 185.78V170.72C229.401 168.04 228.761 166.02 227.481 164.66C226.241 163.3 224.381 162.62 221.901 162.62C218.541 162.62 215.861 163.62 213.861 165.62C211.901 167.58 210.921 170.24 210.921 173.6V185.78C210.921 186.66 210.661 187.36 210.141 187.88C209.661 188.36 208.981 188.6 208.101 188.6ZM258.219 203.06C255.259 203.06 252.559 202.62 250.119 201.74C247.719 200.86 245.779 199.62 244.299 198.02C243.899 197.58 243.699 197.1 243.699 196.58C243.699 195.9 244.079 195.24 244.839 194.6C245.199 194.28 245.659 194.12 246.219 194.12C247.059 194.12 247.859 194.52 248.619 195.32C249.579 196.32 250.819 197.1 252.339 197.66C253.899 198.26 255.719 198.56 257.799 198.56C261.439 198.56 264.239 197.62 266.199 195.74C268.159 193.86 269.119 191.18 269.079 187.7V183.14C267.719 184.86 265.999 186.24 263.919 187.28C261.839 188.28 259.399 188.78 256.599 188.78C251.559 188.78 247.659 187.44 244.899 184.76C242.139 182.04 240.759 178.36 240.759 173.72C240.759 168.96 242.159 165.16 244.959 162.32C247.759 159.44 251.759 158 256.959 158C259.439 158 261.699 158.5 263.739 159.5C265.779 160.5 267.559 161.92 269.079 163.76V160.7C269.079 159.9 269.339 159.26 269.859 158.78C270.419 158.26 271.099 158 271.899 158C272.739 158 273.399 158.24 273.879 158.72C274.399 159.2 274.659 159.86 274.659 160.7V187.7C274.659 190.78 273.979 193.48 272.619 195.8C271.259 198.12 269.339 199.9 266.859 201.14C264.379 202.42 261.499 203.06 258.219 203.06ZM257.379 184.1C259.499 184.1 261.439 183.7 263.199 182.9C264.999 182.1 266.419 180.9 267.459 179.3C268.539 177.7 269.079 175.74 269.079 173.42C269.079 170.22 268.059 167.62 266.019 165.62C263.979 163.62 261.159 162.62 257.559 162.62C253.999 162.62 251.239 163.6 249.279 165.56C247.319 167.48 246.339 170.2 246.339 173.72C246.339 176.92 247.279 179.46 249.159 181.34C251.079 183.18 253.819 184.1 257.379 184.1Z" fill="#28143C"/>
</svg>
