<svg width="396" height="127" viewBox="0 0 396 127" fill="none" xmlns="http://www.w3.org/2000/svg">
<path d="M37.8906 63.8368C37.8906 66.2753 38.6102 68.6589 39.9584 70.686C41.3063 72.7131 43.2224 74.2925 45.4636 75.2245C47.705 76.1564 50.1708 76.3992 52.5495 75.9217C54.9279 75.444 57.112 74.268 58.8254 72.542C60.5388 70.816 61.7043 68.618 62.1743 66.2257C62.6445 63.8336 62.3984 61.355 61.4666 59.1036C60.5351 56.8522 58.9602 54.9294 56.941 53.5783C54.9219 52.2272 52.5495 51.5088 50.1239 51.5135C46.8773 51.5202 43.7658 52.8214 41.4723 55.1319C39.1787 57.4422 37.8906 60.5729 37.8906 63.8368Z" fill="#5362ED"/>
<path d="M50.1239 102.353C47.6995 102.353 45.3296 103.076 43.3137 104.43C41.2978 105.784 39.7268 107.709 38.799 109.961C37.8712 112.212 37.6283 114.69 38.1015 117.081C38.5744 119.471 39.7419 121.667 41.4561 123.39C43.1705 125.114 45.3546 126.288 47.7325 126.763C50.1105 127.239 52.575 126.995 54.8149 126.062C57.0549 125.129 58.9693 123.55 60.3162 121.523C61.6631 119.496 62.3819 117.114 62.3819 114.677C62.3819 111.408 61.0906 108.274 58.7916 105.963C56.4928 103.652 53.375 102.353 50.1239 102.353Z" fill="#5362ED"/>
<path d="M87.7419 51.5135C85.3173 51.5135 82.9474 52.2362 80.9317 53.5905C78.9158 54.9446 77.3446 56.8691 76.4168 59.121C75.489 61.3727 75.2463 63.8505 75.7193 66.2411C76.1923 68.6315 77.3598 70.8274 79.0742 72.5507C80.7883 74.2742 82.9727 75.4479 85.3503 75.9234C87.7283 76.3989 90.193 76.1549 92.4327 75.2222C94.6727 74.2895 96.5871 72.7099 97.934 70.6833C99.2809 68.6569 100 66.2743 100 63.8368C100 60.5686 98.7084 57.4339 96.4097 55.1229C94.1107 52.8119 90.9928 51.5135 87.7419 51.5135Z" fill="#5362ED"/>
<path d="M50.1239 24.6467C52.5495 24.6517 54.9219 23.933 56.941 22.5819C58.9602 21.2308 60.5351 19.308 61.4666 17.0566C62.3984 14.8052 62.6445 12.3266 62.1743 9.93449C61.7043 7.54242 60.5388 5.34418 58.8254 3.61817C57.112 1.8924 54.9279 0.716192 52.5495 0.238725C50.1708 -0.238991 47.705 0.00373323 45.4636 0.935717C43.2224 1.8677 41.3063 3.44704 39.9584 5.47415C38.6102 7.50126 37.8906 9.88485 37.8906 12.3233C37.8906 15.5873 39.1787 18.718 41.4723 21.0285C43.7658 23.3387 46.8773 24.6399 50.1239 24.6467Z" fill="#5362ED"/>
<path d="M24.516 62.415C24.516 59.9775 23.7971 57.5949 22.4502 55.5683C21.1033 53.5419 19.1889 51.9623 16.949 51.0296C14.709 50.0969 12.2445 49.8529 9.86658 50.3284C7.48866 50.8038 5.30454 51.9776 3.59014 53.7011C1.87599 55.4244 0.708493 57.6201 0.235539 60.0107C-0.237414 62.4012 0.00526888 64.8791 0.933062 67.1308C1.86086 69.3826 3.43208 71.3072 5.44771 72.6613C7.4636 74.0154 9.83358 74.7383 12.2579 74.7383C15.509 74.7383 18.6269 73.4399 20.9259 71.1289C23.2247 68.8176 24.516 65.6831 24.516 62.415Z" fill="#5362ED"/>
<path d="M78.015 80.6255C73.6299 76.1901 71.1686 70.1903 71.1686 63.9366C71.1686 57.6829 73.6299 51.6831 78.015 47.2477C79.7247 45.5222 80.8872 43.3265 81.3564 40.9374C81.8254 38.5481 81.5797 36.0729 80.6505 33.8238C79.7214 31.5749 78.1502 29.6531 76.1353 28.3012C74.1207 26.9492 71.7527 26.2277 69.3301 26.2277C66.9078 26.2277 64.5398 26.9492 62.5251 28.3012C60.5102 29.6531 58.939 31.5749 58.01 33.8238C57.0807 36.0729 56.835 38.5481 57.304 40.9374C57.7732 43.3265 58.9358 45.5222 60.6452 47.2477C62.848 49.4417 64.5966 52.0531 65.7899 54.9304C66.9829 57.8076 67.5973 60.8942 67.5973 64.0115C67.5973 67.1287 66.9829 70.2153 65.7899 73.0926C64.5966 75.9698 62.848 78.5809 60.6452 80.7752C58.9358 82.5004 57.7732 84.6965 57.304 87.0855C56.835 89.4749 57.0807 91.95 58.01 94.1991C58.939 96.448 60.5102 98.3699 62.5251 99.7217C64.5398 101.074 66.9078 101.795 69.3301 101.795C71.7527 101.795 74.1207 101.074 76.1353 99.7217C78.1502 98.3699 79.7214 96.448 80.6505 94.1991C81.5797 91.95 81.8254 89.4749 81.3564 87.0855C80.8872 84.6965 79.7247 82.5004 78.015 80.7752V80.6255Z" fill="#6B379E"/>
<path d="M42.7295 87.81C42.7164 84.5745 41.4529 81.4705 39.206 79.1537C34.8208 74.7183 32.3595 68.7185 32.3595 62.4648C32.3595 56.2111 34.8208 50.2116 39.206 45.7759C40.9156 44.0507 42.0782 41.8547 42.5472 39.4656C43.0164 37.0765 42.7707 34.6011 41.8415 32.3522C40.9124 30.1031 39.3412 28.1815 37.3263 26.8294C35.3117 25.4776 32.9434 24.7559 30.5211 24.7559C28.0987 24.7559 25.7308 25.4776 23.7159 26.8294C21.7012 28.1815 20.13 30.1031 19.2007 32.3522C18.2717 34.6011 18.026 37.0765 18.495 39.4656C18.9642 41.8547 20.1268 44.0507 21.8362 45.7759C24.0352 47.9697 25.7806 50.5793 26.9717 53.4543C28.1628 56.3294 28.7759 59.4129 28.7759 62.5272C28.7759 65.6417 28.1628 68.7253 26.9717 71.6003C25.7806 74.4753 24.0352 77.0849 21.8362 79.2784C20.425 80.7193 19.3881 82.4872 18.8171 84.4263C18.2461 86.3651 18.1583 88.4154 18.5617 90.3966C18.9652 92.3776 19.8474 94.2283 21.1305 95.7857C22.4136 97.3431 24.058 98.559 25.9191 99.3263C27.7801 100.094 29.8002 100.389 31.8015 100.186C33.8027 99.9829 35.7236 99.2879 37.3945 98.1621C39.0655 97.0365 40.4352 95.5148 41.3829 93.7312C42.3308 91.9475 42.8273 89.9568 42.8288 87.9347L42.7295 87.81Z" fill="#6B379E"/>
<path d="M133.038 86.928C131.158 86.928 129.638 86.328 128.478 85.128C127.358 83.928 126.558 82.048 126.078 79.488L119.718 46.848C119.638 46.448 119.598 46.148 119.598 45.948C119.598 45.228 119.818 44.688 120.258 44.328C120.738 43.928 121.398 43.728 122.238 43.728C123.198 43.728 123.898 43.948 124.338 44.388C124.818 44.788 125.138 45.408 125.298 46.248L131.418 79.788C131.618 80.748 131.838 81.408 132.078 81.768C132.318 82.088 132.678 82.248 133.158 82.248C133.678 82.248 134.058 82.068 134.298 81.708C134.578 81.308 134.778 80.688 134.898 79.848L139.338 49.668C139.618 47.748 140.258 46.288 141.258 45.288C142.258 44.248 143.578 43.728 145.218 43.728C146.858 43.728 148.158 44.248 149.118 45.288C150.118 46.328 150.758 47.788 151.038 49.668L155.418 79.848C155.538 80.688 155.738 81.308 156.018 81.708C156.298 82.068 156.678 82.248 157.158 82.248C157.638 82.248 157.998 82.068 158.238 81.708C158.518 81.348 158.738 80.708 158.898 79.788L165.078 46.248C165.238 45.408 165.558 44.788 166.038 44.388C166.518 43.948 167.218 43.728 168.138 43.728C169.858 43.728 170.718 44.468 170.718 45.948C170.718 46.148 170.678 46.448 170.598 46.848L164.298 79.488C163.778 81.968 162.958 83.828 161.838 85.068C160.758 86.308 159.238 86.928 157.278 86.928C155.398 86.928 153.918 86.328 152.838 85.128C151.798 83.928 151.078 82.068 150.678 79.548L146.418 50.388C146.298 49.668 146.138 49.168 145.938 48.888C145.778 48.568 145.538 48.408 145.218 48.408C144.858 48.408 144.578 48.568 144.378 48.888C144.218 49.168 144.078 49.668 143.958 50.388L139.638 79.548C139.278 82.068 138.558 83.928 137.478 85.128C136.398 86.328 134.918 86.928 133.038 86.928ZM190.107 86.928C184.907 86.928 180.847 85.588 177.927 82.908C175.047 80.188 173.607 76.428 173.607 71.628C173.607 66.868 175.027 63.128 177.867 60.408C180.747 57.688 184.727 56.328 189.807 56.328C192.927 56.328 195.687 56.828 198.087 57.828C200.527 58.788 202.427 60.168 203.787 61.968C205.147 63.728 205.827 65.748 205.827 68.028C205.827 69.788 205.307 71.148 204.267 72.108C203.267 73.068 201.827 73.548 199.947 73.548H179.127C179.127 76.348 180.067 78.528 181.947 80.088C183.867 81.608 186.587 82.368 190.107 82.368C192.187 82.368 193.987 82.148 195.507 81.708C197.067 81.268 198.527 80.548 199.887 79.548C200.887 78.868 201.647 78.528 202.167 78.528C202.647 78.528 203.087 78.728 203.487 79.128C204.047 79.688 204.327 80.268 204.327 80.868C204.327 81.468 204.047 82.028 203.487 82.548C200.207 85.468 195.747 86.928 190.107 86.928ZM198.267 69.348C198.987 69.348 199.507 69.208 199.827 68.928C200.147 68.648 200.307 68.148 200.307 67.428C200.307 65.508 199.327 63.948 197.367 62.748C195.447 61.508 192.927 60.888 189.807 60.888C186.567 60.888 183.987 61.648 182.067 63.168C180.187 64.688 179.247 66.748 179.247 69.348H198.267ZM214.657 86.928C213.777 86.928 213.097 86.688 212.617 86.208C212.137 85.688 211.897 84.988 211.897 84.108V43.608C211.897 42.728 212.137 42.048 212.617 41.568C213.097 41.048 213.777 40.788 214.657 40.788C215.537 40.788 216.217 41.048 216.697 41.568C217.217 42.048 217.477 42.728 217.477 43.608L217.537 61.968C220.737 58.208 224.857 56.328 229.897 56.328C234.817 56.328 238.697 57.708 241.537 60.468C244.377 63.188 245.797 66.908 245.797 71.628C245.797 76.468 244.397 80.228 241.597 82.908C238.797 85.588 234.857 86.928 229.777 86.928C227.137 86.928 224.817 86.468 222.817 85.548C220.817 84.588 219.037 83.128 217.477 81.168V84.108C217.477 84.988 217.217 85.688 216.697 86.208C216.217 86.688 215.537 86.928 214.657 86.928ZM229.177 82.308C232.777 82.308 235.517 81.408 237.397 79.608C239.277 77.768 240.217 75.108 240.217 71.628C240.217 68.268 239.237 65.648 237.277 63.768C235.317 61.888 232.617 60.948 229.177 60.948C226.897 60.948 224.857 61.408 223.057 62.328C221.297 63.208 219.917 64.468 218.917 66.108C217.957 67.708 217.477 69.548 217.477 71.628C217.477 74.948 218.517 77.568 220.597 79.488C222.677 81.368 225.537 82.308 229.177 82.308ZM261.037 86.328C258.357 86.328 256.277 85.628 254.797 84.228C253.357 82.828 252.637 80.888 252.637 78.408V46.548C252.637 45.668 252.877 44.988 253.357 44.508C253.877 43.988 254.577 43.728 255.457 43.728C256.337 43.728 257.037 43.988 257.557 44.508C258.077 44.988 258.337 45.668 258.337 46.548V78.468C258.337 79.468 258.597 80.268 259.117 80.868C259.637 81.468 260.357 81.768 261.277 81.768H281.017C282.897 81.768 283.837 82.528 283.837 84.048C283.837 84.768 283.577 85.328 283.057 85.728C282.577 86.128 281.897 86.328 281.017 86.328H261.037ZM298.473 86.928C294.593 86.928 291.513 86.048 289.233 84.288C286.993 82.528 285.873 80.148 285.873 77.148C285.873 74.148 287.053 71.768 289.413 70.008C291.813 68.248 295.073 67.368 299.193 67.368C301.353 67.368 303.273 67.648 304.953 68.208C306.673 68.768 308.053 69.528 309.093 70.488V67.488C309.093 65.328 308.393 63.688 306.993 62.568C305.633 61.408 303.613 60.828 300.933 60.828C297.373 60.828 294.293 61.648 291.693 63.288C290.933 63.728 290.273 63.948 289.713 63.948C289.193 63.948 288.673 63.728 288.153 63.288C287.713 62.848 287.493 62.328 287.493 61.728C287.493 61.048 287.833 60.428 288.513 59.868C289.953 58.788 291.773 57.928 293.973 57.288C296.173 56.648 298.473 56.328 300.873 56.328C305.233 56.328 308.633 57.328 311.073 59.328C313.513 61.288 314.733 64.048 314.733 67.608V84.228C314.733 85.108 314.493 85.788 314.013 86.268C313.573 86.708 312.913 86.928 312.033 86.928C311.153 86.928 310.473 86.708 309.993 86.268C309.513 85.788 309.273 85.148 309.273 84.348V82.668C306.873 85.508 303.273 86.928 298.473 86.928ZM299.433 82.668C302.353 82.668 304.693 82.148 306.453 81.108C308.253 80.028 309.153 78.628 309.153 76.908C309.153 75.228 308.293 73.928 306.573 73.008C304.893 72.048 302.553 71.568 299.553 71.568C296.953 71.568 294.953 72.048 293.553 73.008C292.153 73.968 291.453 75.348 291.453 77.148C291.453 78.908 292.133 80.268 293.493 81.228C294.893 82.188 296.873 82.668 299.433 82.668ZM324.639 86.928C323.759 86.928 323.079 86.688 322.599 86.208C322.159 85.688 321.939 84.988 321.939 84.108V59.148C321.939 57.268 322.839 56.328 324.639 56.328C325.479 56.328 326.139 56.588 326.619 57.108C327.099 57.588 327.339 58.268 327.339 59.148V62.088C330.299 58.248 334.319 56.328 339.399 56.328C343.239 56.328 346.199 57.448 348.279 59.688C350.399 61.888 351.459 65.008 351.459 69.048V84.108C351.459 84.988 351.199 85.688 350.679 86.208C350.199 86.688 349.539 86.928 348.699 86.928C347.819 86.928 347.139 86.688 346.659 86.208C346.179 85.688 345.939 84.988 345.939 84.108V69.048C345.939 66.368 345.299 64.348 344.019 62.988C342.779 61.628 340.919 60.948 338.439 60.948C335.079 60.948 332.399 61.948 330.399 63.948C328.439 65.908 327.459 68.568 327.459 71.928V84.108C327.459 84.988 327.199 85.688 326.679 86.208C326.199 86.688 325.519 86.928 324.639 86.928ZM374.757 101.388C371.797 101.388 369.097 100.948 366.657 100.068C364.257 99.188 362.317 97.948 360.837 96.348C360.437 95.908 360.237 95.428 360.237 94.908C360.237 94.228 360.617 93.568 361.377 92.928C361.737 92.608 362.197 92.448 362.757 92.448C363.597 92.448 364.397 92.848 365.157 93.648C366.117 94.648 367.357 95.428 368.877 95.988C370.437 96.588 372.257 96.888 374.337 96.888C377.977 96.888 380.777 95.948 382.737 94.068C384.697 92.188 385.657 89.508 385.617 86.028V81.468C384.257 83.188 382.537 84.568 380.457 85.608C378.377 86.608 375.937 87.108 373.137 87.108C368.097 87.108 364.197 85.768 361.437 83.088C358.677 80.368 357.297 76.688 357.297 72.048C357.297 67.288 358.697 63.488 361.497 60.648C364.297 57.768 368.297 56.328 373.497 56.328C375.977 56.328 378.237 56.828 380.277 57.828C382.317 58.828 384.097 60.248 385.617 62.088V59.028C385.617 58.228 385.877 57.588 386.397 57.108C386.957 56.588 387.637 56.328 388.437 56.328C389.277 56.328 389.937 56.568 390.417 57.048C390.937 57.528 391.197 58.188 391.197 59.028V86.028C391.197 89.108 390.517 91.808 389.157 94.128C387.797 96.448 385.877 98.228 383.397 99.468C380.917 100.748 378.037 101.388 374.757 101.388ZM373.917 82.428C376.037 82.428 377.977 82.028 379.737 81.228C381.537 80.428 382.957 79.228 383.997 77.628C385.077 76.028 385.617 74.068 385.617 71.748C385.617 68.548 384.597 65.948 382.557 63.948C380.517 61.948 377.697 60.948 374.097 60.948C370.537 60.948 367.777 61.928 365.817 63.888C363.857 65.808 362.877 68.528 362.877 72.048C362.877 75.248 363.817 77.788 365.697 79.668C367.617 81.508 370.357 82.428 373.917 82.428Z" fill="#28143C"/>
</svg>
