<svg width="100" height="127" viewBox="0 0 100 127" fill="none" xmlns="http://www.w3.org/2000/svg">
<path d="M37.8906 63.8351C37.8906 66.2735 38.6102 68.6571 39.9584 70.6843C41.3063 72.7114 43.2224 74.2907 45.4636 75.2227C47.705 76.1547 50.1708 76.3974 52.5495 75.9199C54.9279 75.4422 57.112 74.2662 58.8254 72.5402C60.5388 70.8142 61.7043 68.6162 62.1743 66.2239C62.6445 63.8318 62.3984 61.3532 61.4666 59.1018C60.5351 56.8504 58.9602 54.9276 56.941 53.5765C54.9219 52.2254 52.5495 51.507 50.1239 51.5117C46.8773 51.5185 43.7658 52.8197 41.4723 55.1302C39.1787 57.4404 37.8906 60.5711 37.8906 63.8351Z" fill="#5362ED"/>
<path d="M50.1239 102.352C47.6995 102.352 45.3296 103.074 43.3137 104.428C41.2978 105.783 39.7268 107.707 38.799 109.959C37.8712 112.211 37.6283 114.689 38.1015 117.079C38.5744 119.47 39.7419 121.665 41.4561 123.389C43.1705 125.112 45.3546 126.286 47.7325 126.762C50.1105 127.237 52.575 126.993 54.8149 126.06C57.0549 125.128 58.9693 123.548 60.3162 121.521C61.6631 119.495 62.3819 117.112 62.3819 114.675C62.3819 111.406 61.0906 108.272 58.7916 105.961C56.4928 103.65 53.375 102.352 50.1239 102.352Z" fill="#5362ED"/>
<path d="M87.7419 51.5117C85.3173 51.5117 82.9474 52.2344 80.9317 53.5887C78.9158 54.9428 77.3446 56.8674 76.4168 59.1193C75.489 61.3709 75.2463 63.8488 75.7193 66.2394C76.1923 68.6297 77.3598 70.8257 79.0742 72.5489C80.7883 74.2725 82.9727 75.4462 85.3503 75.9216C87.7283 76.3971 90.193 76.1531 92.4327 75.2204C94.6727 74.2877 96.5871 72.7081 97.934 70.6815C99.2809 68.6551 100 66.2725 100 63.835C100 60.5669 98.7084 57.4322 96.4097 55.1212C94.1107 52.8102 90.9928 51.5117 87.7419 51.5117Z" fill="#5362ED"/>
<path d="M50.1239 24.6467C52.5495 24.6517 54.9219 23.933 56.941 22.5819C58.9602 21.2308 60.5351 19.308 61.4666 17.0566C62.3984 14.8052 62.6445 12.3266 62.1743 9.93449C61.7043 7.54242 60.5388 5.34418 58.8254 3.61817C57.112 1.8924 54.9279 0.716192 52.5495 0.238725C50.1708 -0.238991 47.705 0.00373323 45.4636 0.935717C43.2224 1.8677 41.3063 3.44704 39.9584 5.47415C38.6102 7.50126 37.8906 9.88485 37.8906 12.3233C37.8906 15.5873 39.1787 18.718 41.4723 21.0285C43.7658 23.3387 46.8773 24.6399 50.1239 24.6467Z" fill="#5362ED"/>
<path d="M24.516 62.4132C24.516 59.9757 23.7971 57.5932 22.4502 55.5665C21.1033 53.5402 19.1889 51.9606 16.949 51.0279C14.709 50.0951 12.2445 49.8512 9.86658 50.3266C7.48866 50.8021 5.30454 51.9758 3.59014 53.6993C1.87599 55.4226 0.708493 57.6184 0.235539 60.0089C-0.237414 62.3995 0.00526888 64.8774 0.933062 67.129C1.86086 69.3809 3.43208 71.3055 5.44771 72.6596C7.4636 74.0136 9.83358 74.7366 12.2579 74.7366C15.509 74.7366 18.6269 73.4381 20.9259 71.1271C23.2247 68.8159 24.516 65.6814 24.516 62.4132Z" fill="#5362ED"/>
<path d="M78.015 80.6244C73.6299 76.1889 71.1686 70.1892 71.1686 63.9355C71.1686 57.6817 73.6299 51.682 78.015 47.2466C79.7247 45.5211 80.8872 43.3253 81.3564 40.9362C81.8254 38.5469 81.5797 36.0718 80.6505 33.8226C79.7214 31.5737 78.1502 29.6519 76.1353 28.3001C74.1207 26.948 71.7527 26.2266 69.3301 26.2266C66.9078 26.2266 64.5398 26.948 62.5251 28.3001C60.5102 29.6519 58.939 31.5737 58.01 33.8226C57.0807 36.0718 56.835 38.5469 57.304 40.9362C57.7732 43.3253 58.9358 45.5211 60.6452 47.2466C62.848 49.4406 64.5966 52.0519 65.7899 54.9292C66.9829 57.8065 67.5973 60.8931 67.5973 64.0103C67.5973 67.1276 66.9829 70.2141 65.7899 73.0914C64.5966 75.9687 62.848 78.5798 60.6452 80.774C58.9358 82.4993 57.7732 84.6953 57.304 87.0844C56.835 89.4737 57.0807 91.9488 58.01 94.198C58.939 96.4469 60.5102 98.3687 62.5251 99.7205C64.5398 101.073 66.9078 101.794 69.3301 101.794C71.7527 101.794 74.1207 101.073 76.1353 99.7205C78.1502 98.3687 79.7214 96.4469 80.6505 94.198C81.5797 91.9488 81.8254 89.4737 81.3564 87.0844C80.8872 84.6953 79.7247 82.4993 78.015 80.774V80.6244Z" fill="#6B379E"/>
<path d="M42.7295 87.8119C42.7164 84.5764 41.4529 81.4723 39.206 79.1556C34.8208 74.7202 32.3595 68.7204 32.3595 62.4667C32.3595 56.213 34.8208 50.2135 39.206 45.7778C40.9156 44.0526 42.0782 41.8566 42.5472 39.4675C43.0164 37.0784 42.7707 34.603 41.8415 32.3541C40.9124 30.105 39.3412 28.1834 37.3263 26.8313C35.3117 25.4795 32.9434 24.7578 30.5211 24.7578C28.0987 24.7578 25.7308 25.4795 23.7159 26.8313C21.7012 28.1834 20.13 30.105 19.2007 32.3541C18.2717 34.603 18.026 37.0784 18.495 39.4675C18.9642 41.8566 20.1268 44.0526 21.8362 45.7778C24.0352 47.9716 25.7806 50.5812 26.9717 53.4562C28.1628 56.3312 28.7759 59.4148 28.7759 62.5291C28.7759 65.6436 28.1628 68.7272 26.9717 71.6022C25.7806 74.4772 24.0352 77.0868 21.8362 79.2803C20.425 80.7212 19.3881 82.4891 18.8171 84.4282C18.2461 86.367 18.1583 88.4173 18.5617 90.3985C18.9652 92.3795 19.8474 94.2302 21.1305 95.7876C22.4136 97.345 24.058 98.5609 25.9191 99.3282C27.7801 100.096 29.8002 100.391 31.8015 100.188C33.8027 99.9848 35.7236 99.2898 37.3945 98.164C39.0655 97.0384 40.4352 95.5167 41.3829 93.7331C42.3308 91.9494 42.8273 89.9587 42.8288 87.9366L42.7295 87.8119Z" fill="#6B379E"/>
</svg>
